<svg width="835" height="160" viewBox="0 0 835 160" fill="none" xmlns="http://www.w3.org/2000/svg">
<path d="M173 45.5C154.5 46 145.5 61 145.5 73L145.5 124.5C145.5 124.5 144.5 132.5 142.5 138C140.5 143.5 135.5 149.5 135.5 149.5C135.5 149.5 143.455 149.568 153 149.5L153.357 149.511C160.555 149.73 168.106 149.959 174.5 147.5C182.467 144.758 188.271 139.508 190.5 137C194.5 132.5 198.716 125.5 200 117C200.658 112.644 200.511 83.9293 200.501 82.0922C200.5 82.0293 200.5 81.9686 200.5 81.9057V71C200 62 192.5 46 173 45.5Z" fill="white"/>
<path d="M185.5 32.5C166 25.5 132.5 37 130.5 71.5V122C131 133 122.5 148.5 104 149.5C91 150 77.5 141 75.5 124V73.5C75.5 45.5 91 31 102.5 21.5C113 15 118 13 130 11C159 7.49997 177.5 23 185.5 32.5Z" fill="#E2E2E2"/>
<path d="M0 73.7272C0 39.0839 28.0568 10.9999 62.6667 10.9999C74.081 10.9999 84.7826 14.0546 94 19.3917C75.2689 30.2376 62.6667 50.5093 62.6667 73.7272V117.636C62.6667 134.958 48.6383 149 31.3333 149C14.0284 149 0 134.958 0 117.636V73.7272Z" fill="white"/>
<path d="M237.175 123.538C233.748 123.538 230.862 122.548 228.517 120.568C226.172 118.587 225 116.066 225 113.005V49.6957C225 46.8148 226.082 44.384 228.247 42.4034C230.592 40.2427 233.568 39.1624 237.175 39.1624C241.324 39.1624 244.48 40.6028 246.645 43.4838C247.546 44.5641 248.088 45.6444 248.268 46.7248C250.432 44.0239 253.318 41.8633 256.926 40.2427C260.533 38.6222 264.591 37.812 269.101 37.812C281.366 37.812 290.204 41.8632 295.615 49.9658C298.862 46.0046 302.83 43.0336 307.52 41.053C312.209 38.8923 317.08 37.812 322.13 37.812C332.231 37.812 340.167 40.7829 345.939 46.7248C351.891 52.6667 354.867 62.1197 354.867 75.0838V113.545C354.867 116.426 353.695 118.857 351.35 120.838C349.186 122.638 346.39 123.538 342.963 123.538C339.536 123.538 336.65 122.548 334.305 120.568C332.141 118.587 331.058 116.066 331.058 113.005V78.0547C331.058 71.3926 329.886 66.6211 327.541 63.7402C325.196 60.8593 321.859 59.4188 317.53 59.4188C313.202 59.4188 309.684 60.7692 306.979 63.4701C304.454 65.9909 302.74 69.0519 301.838 72.653V113.545C301.838 116.426 300.666 118.857 298.321 120.838C296.156 122.638 293.361 123.538 289.934 123.538C286.507 123.538 283.621 122.548 281.276 120.568C279.111 118.587 278.029 116.066 278.029 113.005V78.0547C278.029 71.3926 276.857 66.6211 274.512 63.7402C272.167 60.8593 268.83 59.4188 264.501 59.4188C260.353 59.4188 256.926 60.7692 254.22 63.4701C251.515 65.9909 249.711 68.9618 248.809 72.3829V112.735C248.809 115.796 247.637 118.407 245.292 120.568C243.127 122.548 240.422 123.538 237.175 123.538Z" fill="white"/>
<path d="M413.223 123.538C400.958 123.538 390.586 119.937 382.109 112.735C373.812 105.353 369.663 93.2695 369.663 80.4855C369.663 67.1613 373.722 56.7179 381.838 49.1556C390.136 41.5932 400.507 37.812 412.952 37.812C421.791 37.812 429.096 39.4325 434.868 42.6735C440.639 45.9145 444.968 50.0558 447.854 55.0974C450.74 60.139 452.183 65.4507 452.183 71.0325C452.183 80.3954 448.035 85.0769 439.738 85.0769H394.825C393.382 85.0769 392.661 85.9772 392.661 89.7778C392.661 93.9191 394.915 97.2501 399.425 99.7709C404.114 102.112 409.345 103.282 415.117 103.282C418.724 103.282 422.332 102.832 425.939 101.932C429.547 100.851 432.703 99.3208 435.409 97.3402C437.212 96.0798 439.106 95.4496 441.09 95.4496C443.796 95.4496 446.051 96.4399 447.854 98.4205C449.838 100.401 450.83 102.742 450.83 105.443C450.83 108.684 449.117 111.745 445.69 114.626C442.443 117.326 437.663 119.487 431.35 121.108C425.218 122.728 419.175 123.538 413.223 123.538ZM427.292 69.412C427.653 69.412 428.104 69.3219 428.645 69.1419C429.366 68.9618 429.727 68.3316 429.727 67.2513C429.727 64.5504 428.013 62.1197 424.586 59.959C421.34 57.6182 417.101 56.4479 411.87 56.4479C406.279 56.4479 401.679 57.7083 398.072 60.2291C394.645 62.5698 392.931 65.0006 392.931 67.5214C392.931 68.7818 393.653 69.412 395.096 69.412H427.292Z" fill="white"/>
<path d="M502.433 160C497.382 160 492.512 159.46 487.823 158.379C483.133 157.479 478.894 156.039 475.107 154.058C470.778 151.717 468.613 148.116 468.613 143.255C468.613 140.194 469.695 137.493 471.86 135.152C474.024 132.991 476.55 131.911 479.435 131.911C481.78 131.911 483.855 132.451 485.658 133.532C488.544 135.152 491.52 136.323 494.587 137.043C497.833 137.763 500.99 138.123 504.056 138.123C510.91 138.123 515.961 136.593 519.207 133.532C522.634 130.471 524.348 126.419 524.348 121.378V115.166C518.576 120.748 511.451 123.538 502.974 123.538C490.889 123.538 481.149 119.757 473.754 112.195C466.539 104.452 462.931 92.1892 462.931 79.4051C462.931 66.6211 466.449 56.5379 473.483 49.1556C480.698 41.5932 490.258 37.812 502.162 37.812C510.82 37.812 518.305 41.143 524.618 47.8051C525.16 45.2843 526.422 43.2137 528.406 41.5932C530.571 39.9726 533.186 39.1624 536.252 39.1624C539.86 39.1624 542.746 40.2427 544.91 42.4034C547.075 44.5641 548.157 47.265 548.157 50.506V121.918C548.157 133.442 544.099 142.625 535.982 149.467C528.046 156.489 516.862 160 502.433 160ZM504.868 101.662C510.279 101.662 514.608 99.7709 517.855 95.9897C521.282 92.0285 522.995 85.1669 522.995 79.4051C522.995 73.4632 521.282 68.6917 517.855 65.0906C514.608 61.4895 510.279 59.6889 504.868 59.6889C499.276 59.6889 494.767 61.4895 491.34 65.0906C488.093 68.6917 486.47 73.4632 486.47 79.4051C486.47 85.1669 488.093 92.0285 491.34 95.9897C494.767 99.7709 499.276 101.662 504.868 101.662Z" fill="white"/>
<path d="M601.791 123.538C589.706 123.538 579.966 119.757 572.57 112.195C565.356 104.452 561.748 92.1892 561.748 79.4051C561.748 66.6211 565.265 56.5379 572.3 49.1556C579.515 41.5932 589.074 37.812 600.979 37.812C608.735 37.812 615.679 40.6028 621.812 46.1846V10.8034C621.812 7.74245 622.894 5.22165 625.058 3.24102C627.223 1.08034 630.019 0 633.446 0C637.053 0 639.939 1.08034 642.104 3.24102C644.448 5.22165 645.621 7.65242 645.621 10.5333V113.005C645.621 116.066 644.448 118.587 642.104 120.568C639.939 122.548 637.053 123.538 633.446 123.538C627.674 123.538 623.976 121.018 622.353 115.976C616.761 121.018 609.907 123.538 601.791 123.538ZM603.684 101.662C609.096 101.662 613.425 99.7709 616.671 95.9897C620.098 92.0285 621.812 85.1669 621.812 79.4051C621.812 73.4632 620.098 68.6917 616.671 65.0906C613.425 61.4895 609.096 59.6889 603.684 59.6889C598.093 59.6889 593.584 61.4895 590.157 65.0906C586.91 68.6917 585.287 73.4632 585.287 79.4051C585.287 85.1669 586.91 92.0285 590.157 95.9897C593.584 99.7709 598.093 101.662 603.684 101.662Z" fill="white"/>
<path d="M704.124 123.538C691.859 123.538 681.488 119.937 673.01 112.735C664.713 105.353 660.565 93.2695 660.565 80.4855C660.565 67.1613 664.623 56.7179 672.74 49.1556C681.037 41.5932 691.408 37.812 703.854 37.812C712.692 37.812 719.997 39.4325 725.769 42.6735C731.541 45.9145 735.87 50.0558 738.756 55.0974C741.642 60.139 743.085 65.4507 743.085 71.0325C743.085 80.3954 738.936 85.0769 730.639 85.0769H685.727C684.284 85.0769 683.562 87.9772 683.562 89.7778C683.562 93.9191 685.817 97.2501 690.326 99.7709C695.016 102.112 700.246 103.282 706.018 103.282C709.626 103.282 713.233 102.832 716.841 101.932C720.448 100.851 723.605 99.3208 726.31 97.3402C728.114 96.0798 730.008 95.4496 731.992 95.4496C734.697 95.4496 736.952 96.4399 738.756 98.4205C740.74 100.401 741.732 102.742 741.732 105.443C741.732 108.684 740.018 111.745 736.591 114.626C733.345 117.326 728.565 119.487 722.252 121.108C716.119 122.728 710.077 123.538 704.124 123.538ZM718.193 69.412C718.554 69.412 719.005 69.3219 719.546 69.1419C720.268 68.9618 720.628 68.3316 720.628 67.2513C720.628 64.5504 718.915 62.1197 715.488 59.959C712.241 57.6182 708.002 56.4479 702.772 56.4479C697.18 56.4479 692.581 57.7083 688.973 60.2291C685.546 62.5698 683.833 65.0006 683.833 67.5214C683.833 68.7818 684.554 69.412 685.997 69.412H718.193Z" fill="white"/>
<path d="M793.605 123.538C790.358 123.538 787.292 122.818 784.406 121.378C781.52 119.937 779.446 117.777 778.183 114.896L751.939 53.4769C751.398 51.8564 751.127 50.2359 751.127 48.6154C751.127 45.0142 752.39 42.3134 754.915 40.5128C757.44 38.7122 760.326 37.812 763.573 37.812C766.098 37.812 768.263 38.5322 770.066 39.9726C772.05 41.233 773.403 43.0336 774.125 45.3744L790.088 90.8581C790.989 93.1989 792.252 94.3692 793.875 94.3692C795.318 94.3692 796.491 93.1989 797.393 90.8581L812.273 45.3744C813.175 42.8536 814.618 40.963 816.602 39.7026C818.586 38.4422 820.751 37.812 823.096 37.812C826.162 37.812 828.867 38.8023 831.212 40.7829C833.737 42.5835 835 45.3744 835 49.1556C835 49.8758 835 50.596 835 51.3162C835 51.8564 834.82 52.5766 834.459 53.4769L809.027 114.896C807.764 117.777 805.69 119.937 802.804 121.378C800.098 122.818 797.032 123.538 793.605 123.538Z" fill="white"/>
</svg>
