<svg width="201" height="140" viewBox="0 0 201 140" fill="none" xmlns="http://www.w3.org/2000/svg">
<path d="M173 35.5C154.5 36 145.5 51 145.5 63L145.5 114.5C145.5 114.5 144.5 122.5 142.5 128C140.5 133.5 135.5 139.5 135.5 139.5C135.5 139.5 143.455 139.568 153 139.5L153.357 139.511C160.555 139.73 168.106 139.959 174.5 137.5C182.467 134.758 188.271 129.508 190.5 127C194.5 122.5 198.716 115.5 200 107C200.658 102.644 200.511 73.9293 200.501 72.0922C200.5 72.0293 200.5 71.9686 200.5 71.9057V61C200 52 192.5 36 173 35.5Z" fill="white"/>
<path d="M185.5 22.5C166 15.5 132.5 27 130.5 61.5V112C131 123 122.5 138.5 104 139.5C91 140 77.5 131 75.5 114V63.5C75.5 35.5 91 21 102.5 11.5C113 4.99997 118 3.00001 130 0.999991C159 -2.50003 177.5 13 185.5 22.5Z" fill="#E2E2E2"/>
<path d="M0 63.7272C0 29.0839 28.0568 0.999939 62.6667 0.999939C74.081 0.999939 84.7826 4.05458 94 9.39173C75.2689 20.2376 62.6667 40.5093 62.6667 63.7272V107.636C62.6667 124.958 48.6383 139 31.3333 139C14.0284 139 0 124.958 0 107.636V63.7272Z" fill="white"/>
</svg>
